<svg width="1920" height="2620" viewBox="0 0 1920 2620" fill="none" xmlns="http://www.w3.org/2000/svg">
<rect width="1990" height="2735" transform="translate(-31 -44)" fill="#F8EFE4"/>
<g clip-path="url(#clip0)">
<path fill-rule="evenodd" clip-rule="evenodd" d="M0 942.857L80 885.286C160 827.714 320 712.571 480 674.19C640 635.81 800 674.19 960 712.571C1120 750.952 1280 789.333 1440 779.738C1600 770.143 1760 712.571 1840 683.786L1920 655V1511H1840C1760 1511 1600 1511 1440 1511C1280 1511 1120 1511 960 1511C800 1511 640 1511 480 1511C320 1511 160 1511 80 1511H0V942.857Z" fill="#E6C2BF"/>
<path fill-rule="evenodd" clip-rule="evenodd" d="M0 943L80 996.889C160 1050.78 320 1158.56 480 1194.48C640 1230.41 800 1194.48 960 1140.59C1013.33 1122.63 1066.67 1102.67 1120 1082.71C1226.67 1042.79 1333.33 1002.88 1440 978.926C1600 943 1760 943 1840 943H1920V1573.77L1840 1554.59C1760 1535.41 1600 1497.05 1440 1516.23C1371.43 1524.45 1302.86 1543.24 1234.29 1562.02C1142.86 1587.07 1051.43 1612.13 960 1612.13C892.632 1612.13 825.263 1598.52 757.895 1584.92C665.263 1566.22 572.632 1547.52 480 1564.18C320 1592.95 160 1727.2 80 1794.33L0 1861.46V943Z" fill="#FAD02C"/>
</g>
<g clip-path="url(#clip1)">
<path d="M1827 1751C1827 1796.29 1790.29 1833 1745 1833C1699.71 1833 1663 1796.29 1663 1751C1663 1705.71 1699.71 1669 1745 1669C1790.29 1669 1827 1705.71 1827 1751ZM1682.48 1751C1682.48 1785.53 1710.47 1813.52 1745 1813.52C1779.53 1813.52 1807.52 1785.53 1807.52 1751C1807.52 1716.47 1779.53 1688.48 1745 1688.48C1710.47 1688.48 1682.48 1716.47 1682.48 1751Z" fill="#FAD02C"/>
<path d="M974 1960C974 1987.06 952.062 2009 925 2009C897.938 2009 876 1987.06 876 1960C876 1932.94 897.938 1911 925 1911C952.062 1911 974 1932.94 974 1960ZM887.64 1960C887.64 1980.63 904.366 1997.36 925 1997.36C945.634 1997.36 962.36 1980.63 962.36 1960C962.36 1939.37 945.634 1922.64 925 1922.64C904.366 1922.64 887.64 1939.37 887.64 1960Z" fill="#FAD02C"/>
<path d="M212 252C212 282.928 186.928 308 156 308C125.072 308 100 282.928 100 252C100 221.072 125.072 196 156 196C186.928 196 212 221.072 212 252ZM113.302 252C113.302 275.581 132.419 294.698 156 294.698C179.581 294.698 198.698 275.581 198.698 252C198.698 228.419 179.581 209.302 156 209.302C132.419 209.302 113.302 228.419 113.302 252Z" fill="#FAD02C"/>
<path d="M1959 422.5C1959 442.658 1942.66 459 1922.5 459C1902.34 459 1886 442.658 1886 422.5C1886 402.342 1902.34 386 1922.5 386C1942.66 386 1959 402.342 1959 422.5ZM1894.67 422.5C1894.67 437.87 1907.13 450.33 1922.5 450.33C1937.87 450.33 1950.33 437.87 1950.33 422.5C1950.33 407.13 1937.87 394.67 1922.5 394.67C1907.13 394.67 1894.67 407.13 1894.67 422.5Z" fill="#FAD02C"/>
<path d="M490 492.5C490 512.658 473.658 529 453.5 529C433.342 529 417 512.658 417 492.5C417 472.342 433.342 456 453.5 456C473.658 456 490 472.342 490 492.5ZM425.67 492.5C425.67 507.87 438.13 520.33 453.5 520.33C468.87 520.33 481.33 507.87 481.33 492.5C481.33 477.13 468.87 464.67 453.5 464.67C438.13 464.67 425.67 477.13 425.67 492.5Z" fill="#FAD02C"/>
<path d="M130 1910.5C130 1922.93 119.926 1933 107.5 1933C95.0736 1933 85 1922.93 85 1910.5C85 1898.07 95.0736 1888 107.5 1888C119.926 1888 130 1898.07 130 1910.5ZM90.3447 1910.5C90.3447 1919.97 98.0254 1927.66 107.5 1927.66C116.975 1927.66 124.655 1919.97 124.655 1910.5C124.655 1901.03 116.975 1893.34 107.5 1893.34C98.0254 1893.34 90.3447 1901.03 90.3447 1910.5Z" fill="#FAD02C"/>
<circle cx="1477" cy="321" r="14" fill="#FAD02C"/>
<circle cx="1231" cy="169" r="27" fill="#FAD02C"/>
<circle cx="1362" cy="2254" r="27" fill="#FAD02C"/>
<circle cx="966" cy="2183" r="44" fill="#FAD02C"/>
<circle cx="86" cy="2061" r="19" fill="#FAD02C"/>
<path d="M1715 146.5C1715 160.583 1703.58 172 1689.5 172C1675.42 172 1664 160.583 1664 146.5C1664 132.417 1675.42 121 1689.5 121C1703.58 121 1715 132.417 1715 146.5ZM1670.06 146.5C1670.06 157.238 1678.76 165.943 1689.5 165.943C1700.24 165.943 1708.94 157.238 1708.94 146.5C1708.94 135.762 1700.24 127.057 1689.5 127.057C1678.76 127.057 1670.06 135.762 1670.06 146.5Z" fill="#FAD02C"/>
<circle cx="390" r="26" fill="#FAD02C"/>
<circle cx="420" cy="2493" r="19" fill="#FAD02C"/>
<path d="M899 2578C899 2600.09 881.091 2618 859 2618C836.909 2618 819 2600.09 819 2578C819 2555.91 836.909 2538 859 2538C881.091 2538 899 2555.91 899 2578ZM828.502 2578C828.502 2594.84 842.156 2608.5 859 2608.5C875.844 2608.5 889.498 2594.84 889.498 2578C889.498 2561.16 875.844 2547.5 859 2547.5C842.156 2547.5 828.502 2561.16 828.502 2578Z" fill="#FAD02C"/>
<circle cx="1914.5" cy="2183.5" r="44.5" fill="#FAD02C"/>
<path d="M1920 2620C1920 2665.29 1883.29 2702 1838 2702C1792.71 2702 1756 2665.29 1756 2620C1756 2574.71 1792.71 2538 1838 2538C1883.29 2538 1920 2574.71 1920 2620ZM1775.48 2620C1775.48 2654.53 1803.47 2682.52 1838 2682.52C1872.53 2682.52 1900.52 2654.53 1900.52 2620C1900.52 2585.47 1872.53 2557.48 1838 2557.48C1803.47 2557.48 1775.48 2585.47 1775.48 2620Z" fill="#FAD02C"/>
<path d="M317 2298C317 2337.21 285.212 2369 246 2369C206.788 2369 175 2337.21 175 2298C175 2258.79 206.788 2227 246 2227C285.212 2227 317 2258.79 317 2298ZM191.866 2298C191.866 2327.9 216.102 2352.13 246 2352.13C275.898 2352.13 300.134 2327.9 300.134 2298C300.134 2268.1 275.898 2243.87 246 2243.87C216.102 2243.87 191.866 2268.1 191.866 2298Z" fill="#FAD02C"/>
<path d="M1684 2441.5C1684 2469.94 1660.94 2493 1632.5 2493C1604.06 2493 1581 2469.94 1581 2441.5C1581 2413.06 1604.06 2390 1632.5 2390C1660.94 2390 1684 2413.06 1684 2441.5ZM1593.23 2441.5C1593.23 2463.19 1610.81 2480.77 1632.5 2480.77C1654.19 2480.77 1671.77 2463.19 1671.77 2441.5C1671.77 2419.81 1654.19 2402.23 1632.5 2402.23C1610.81 2402.23 1593.23 2419.81 1593.23 2441.5Z" fill="#FAD02C"/>
<circle cx="18" cy="2560" r="49" fill="#FAD02C"/>
<path d="M1920 0C1920 45.2873 1883.29 82 1838 82C1792.71 82 1756 45.2873 1756 0C1756 -45.2873 1792.71 -82 1838 -82C1883.29 -82 1920 -45.2873 1920 0ZM1775.48 0C1775.48 34.5296 1803.47 62.5215 1838 62.5215C1872.53 62.5215 1900.52 34.5296 1900.52 0C1900.52 -34.5296 1872.53 -62.5215 1838 -62.5215C1803.47 -62.5215 1775.48 -34.5296 1775.48 0Z" fill="#FAD02C"/>
<circle cx="390" cy="2620" r="26" fill="#FAD02C"/>
</g>
<defs>
<clipPath id="clip0">
<rect width="1920" height="1206.46" fill="white" transform="translate(0 655)"/>
</clipPath>
<clipPath id="clip1">
<rect width="1990" height="2735" fill="white" transform="translate(-31 -44)"/>
</clipPath>
</defs>
</svg>
